<svg xmlns="http://www.w3.org/2000/svg" viewBox="0 0 64 64"><rect x="2" y="2" width="60" height="60" rx="16" fill="#111827"/><g fill="none" transform="translate(32 32.75) scale(0.9) translate(-32 -32.75)"><path d="M7.18 19.59 C11.77 27.46 15.60 44.00 19.50 44.00 C23.40 44.00 27.23 27.46 31.82 19.59" stroke="#7a5cff" stroke-width="4.6" stroke-linecap="round"/><path d="M19.40 19.53 C24.75 28.85 27.80 46.00 32.00 46.00 C36.20 46.00 39.25 28.85 44.60 19.53" stroke="#18c2a5" stroke-width="4.6" stroke-linecap="round"/><path d="M32.18 19.59 C36.77 27.46 40.60 44.00 44.50 44.00 C48.40 44.00 52.23 27.46 56.82 19.59" stroke="#fb7185" stroke-width="4.6" stroke-linecap="round"/><path d="M22.16 25.35 C24.72 31.66 26.77 38.95 28.90 42.96" stroke="#111827" stroke-width="7.8"/><path d="M21.31 23.34 C24.57 30.69 26.97 40.19 29.59 44.14" stroke="#18c2a5" stroke-width="4.6"/><path d="M34.98 25.46 C37.61 31.81 40.02 39.41 42.40 42.54" stroke="#111827" stroke-width="7.8"/><path d="M34.20 23.63 C37.39 30.86 40.25 40.70 43.10 43.33" stroke="#fb7185" stroke-width="4.6"/></g></svg>
